#!OML:ASF F:\VICON\USERDATA\INSTALL\rory3\rory3.ASF
:FULLY-SPECIFIED
:DEGREES
84
root -0.5520468573105788 18.38141927628474 19.918480142799268 5.694908547516027 -4.924512468787392 -0.8085547222304649
lfemur 14.92307030377292 -2.1423477034450644 -26.79043819966225
ltibia 11.280559105162162
lfoot 48.8055247667383 -23.89764230272751
ltoes -20.163267903369565
rfemur -44.017461274074115 2.4017195816735915 20.952724875078715
rtibia 1.0284727883562539
rfoot 0.18805640556124592 1.015671982729387
rtoes -40.860768096673894
lowerback 1.0 -1.2308026267368102 -1.5237603557754744
upperback -2.3442306183910193 -0.6373815534495522 1.047201347878839
thorax -8.495412296322879 -0.3290649656851477 2.936765375683763
lowerneck -20.84334203727566 -1.9478050268010656 -2.279720797396443
upperneck 11.14099231285486 -2.6681021800321107 1.9825936585843642
head 7.238944700569569 -1.034189909669214 0.7401218097586889
lclavicle -4.887194815031703e-15 1.085644571047806e-14
lhumerus -36.77513302427861 -14.992654980610348 94.21035911289049
lradius 130.81834066935292
lwrist 37.806945704983995
lhand -34.22929608089211 0.34999684236660233
lfingers nan
lthumb -8.131856534097963 30.272688204541886
rclavicle -1.1720910998906363e-15 1.2774517268275556e-14
rhumerus -65.23388540067508 6.36328486924826 -92.5226308287464
rradius 123.10259225516434
rwrist -6.036844922978009
rhand -18.184637965666987 1.0
rfingers nan
rthumb 7.864646294219859 8.89302950560998
85
root -0.543565139940681 18.423502229134655 20.407747773397123 5.7438561878361245 -4.730272615710037 -0.34560405432162833
lfemur 14.874249347395622 -2.6477188263611 -27.502625986523643
ltibia 11.670851797537232
lfoot 49.27682767917828 -23.4153612998132
ltoes -17.182462881582776
rfemur -43.19431175237354 2.571181210904977 19.954555539695942
rtibia -5.126482269788333
rfoot 0.7682026448393167 0.1669779551919337
rtoes -38.69050130940617
lowerback 1.0 -1.2849758534284887 -1.8435156721009525
upperback -2.058467304491117 -0.7259776598297938 0.9451547719376315
thorax -7.625386928150015 -0.42384612468017285 3.0595991740628152
lowerneck -22.94334957683133 -1.8971806464738599 -2.305090450990241
upperneck 11.707656127111775 -2.5870296346763606 1.924308118063764
head 7.724115947573039 -1.0000775902427252 0.7028109957883061
lclavicle 1.3425364820211185e-14 8.007828721613057e-15
lhumerus -36.89494867071884 -15.187067275044065 94.24952608106054
lradius 130.18877136229202
lwrist 38.01345194740183
lhand -34.68342209360534 1.2916579940555473
lfingers nan
lthumb -8.673848499624134 31.108227858978115
rclavicle 1.72434865634354e-14 9.902546131524209e-15
rhumerus -64.85465882168174 5.82710781684458 -91.64136853925163
rradius 123.5846247578167
rwrist -7.2552304112655
rhand -18.598189121892254 1.0
rfingers nan
rthumb 7.484513317106112 9.058368305931154
86
root -0.5358400866630187 18.467901572547696 20.583276629121084 5.7141945168131 -4.280113699384546 0.6353244742808188
lfemur 14.782417356176985 -3.169218920933705 -28.62230895501956
ltibia 12.679311959790752
lfoot 48.2398067534962 -24.93273361186894
ltoes -19.454585618979024
rfemur -42.31540764439974 2.3111453782182902 18.429537353615302
rtibia -10.726982369649
rfoot 1.5653234833466616 -1.0844184207831127
rtoes -39.41391432794022
lowerback 1.0 -1.3386474203549281 -2.7028924511405483
upperback -2.074774414133021 -0.9491913830111209 0.6692617113322585
thorax -7.5012787561324945 -0.5220549083920434 3.2986285736288137
lowerneck -23.39740409148222 -1.8705413435683957 -2.2528798945461084
upperneck 11.88899663695486 -2.5244181734798072 1.738072515808659
head 7.846531058642425 -0.98615031557801 0.630144876571987
lclavicle 5.0000194067743365e-14 1.343768330382258e-16
lhumerus -37.60546969662228 -15.401768073892008 94.42497058280321
lradius 129.41590977324918
lwrist 39.7891514101397
lhand -34.25663871703071 1.1336049897872367
lfingers nan
lthumb -8.328014660476786 30.861553183956076
rclavicle 5.396712009193059e-14 2.055978738909606e-15
rhumerus -64.78358675196557 5.1471862484263955 -90.92938828791951
rradius 124.03872568061561
rwrist -7.963792483064474
rhand -18.269245884198334 1.0
rfingers nan
rthumb 7.81802639891949 9.84127097339519
87
root -0.5331925725681163 18.51758196096843 20.944409856998046 5.5617666878849334 -4.193244801240048 1.099267968981875
lfemur 14.46363392380108 -3.4205607144556343 -29.148413342739772
ltibia 14.431993381600414
lfoot 46.16772714403533 -25.89409862209261
ltoes -22.327617926951362
rfemur -41.38048187339945 2.2299029009297677 17.95289198544713
rtibia -15.795130240142974
rfoot 2.4629486092944606 -2.3839648503549613
rtoes -44.53003971131086
lowerback 1.0 -1.3428228455018596 -3.121569980546197
upperback -2.041681766657737 -1.0427371387492 0.5850827455844887
thorax -7.512983338867677 -0.562505589730451 3.461805252571626
lowerneck -23.850173703168753 -1.847972774927824 -2.284125874668619
upperneck 12.35079204181142 -2.422970294817106 1.6133713779976593
head 8.047855850657907 -0.9636802260005051 0.6084583411364406
lclavicle 2.8515035081367814e-14 1.382392527621415e-15
lhumerus -38.43565386788887 -15.543633663565787 94.7195618777235
lradius 128.68919410141376
lwrist 40.771712385130066
lhand -34.59318741503628 1.8823748536863396
lfingers nan
lthumb -8.772418154545376 31.526651041719088
rclavicle 3.260672795917064e-14 3.555638815955642e-15
rhumerus -64.61734649737632 4.502748889284602 -90.45632594847103
rradius 124.44702272787629
rwrist -7.959389221833224
rhand -18.301725936903523 1.0
rfingers nan
rthumb 7.8041923835883384 11.549623657365228
